<svg enable-background="new 0 0 140 140" height="512" viewBox="0 0 140 140" width="512" xmlns="http://www.w3.org/2000/svg"><circle cx="70" cy="70" fill="#fed35b" r="64"/><path d="m31.5752964 84.7813416c-.1199951-.3100586-.2299805-.6101074-.3400269-.9199219-.0999756-.2700195-.1900024-.5500488-.2799683-.8200684-.1099854-.3200684-.2200317-.630127-.3200073-.9499512 0-.0102539 0-.0300293-.0100098-.0400391-.2600098-.8701172-.4899902-1.7600098-.7000122-2.6501465-.0599976-.2600098-.1300049-.5197754-.1799927-.7897949-.0800171-.3500977-.1400146-.7001953-.2099609-1.0500488-.0500488-.2700195-.1000366-.5300293-.1400146-.8000488-.0599976-.3601074-.1099854-.7199707-.1600342-1.0700684-.039978-.2700195-.0700073-.5400391-.1099854-.8098145-.039978-.3701172-.0800171-.7302246-.1099854-1.1000977-.0300293-.2600098-.0400391-.5400391-.0599976-.8100586-.0300293-.3701172-.0599976-.7399902-.0800171-1.1098633-.0100098-.25-.0100098-.5-.0200195-.75 0-.3701172-.0199585-.7402344-.0199585-1.1101074 0-.2399902.0100098-.4699707.0100098-.7099609.0099487-.3901367.0199585-.7700195.0299683-1.1501465.0200195-.3100586.039978-.6098633.0599976-.9099121.0200195-.3400879.0499878-.6799316.0800171-1.0200195.0100098-.130127.0100098-.2700195.0299683-.3999023 0 0 0 0-.0099487 0 .0199585-.1101074.039978-.2199707.0499878-.3300781 0-.0500488.0100098-.0998535.0199585-.1501465.0400391-.3598633.0800171-.7197266.1300049-1.0698242.0400391-.2399902.0700073-.4699745.1000366-.7099648.0199585-.1201172.039978-.2399902.0599976-.3601074.0599976-.3498535.1300049-.7099609.2000122-1.0598145.0299683-.1601562.0599976-.3400879.0899658-.5.0300293-.1401367.0599976-.2802734.0900269-.4101562.0499878-.2299805.1099854-.4599609.1599731-.6899414.0499878-.2399902.1099854-.4699707.1699829-.7099609.0400391-.1601562.0800171-.3200684.1300049-.4799805.0400391-.170166.0900269-.3400879.1400146-.5102539.0300293-.1298828.0599976-.2597656.0999756-.3898926.0500488-.1499023.1000366-.3000488.1400146-.4499512.0599976-.1899414.1199951-.3701172.1700439-.5500488.1099854-.3400879.2199707-.6799316.3399658-1.0100098.0499878-.1398926.0999756-.2800293.1500244-.4099121.039978-.1201172.0799561-.2399902.1300049-.3701172.1900024-.5.3899536-1.0100098.5899658-1.5.0100079-.0100098.0100079-.0197754.0100079-.0300293.039978-.079834.0599976-.1499023.0999756-.2199707.25-.5898438.5100098-1.1699219.7800293-1.75.0100098 0 .0100098-.0100098.0100098-.0197754.039978-.0700684.0799561-.1401367.1099854-.2102051.0599976-.1298828.1300049-.25.1900024-.3798828.1799927-.3500977.3499756-.6901855.539978-1.0300293.0599976-.1298828.1300049-.25.2000122-.3701172l.1799927-.329834c.0400391-.0700684.0800171-.1501465.1300049-.2199707.1300049-.2402344.2700195-.4702148.4100342-.7099609.0899658-.1401367.1699829-.2802734.2599487-.420166.1500244-.2399902.2900391-.4799805.4500122-.7099609.0800171-.130127.1600342-.25.2399902-.380127.0300293-.0400391.0599976-.079834.0800171-.119873.0900269-.119873.1699829-.25.25-.369873.2299805-.3300781.460022-.6601562.7000122-.9902344.0800171-.119873.1699829-.2399902.25-.3498535.039978-.0500488.0700073-.1000977.1099854-.1501465.4000244-.5400391.8200073-1.079834 1.2600098-1.5998535.0499878-.0700684.1099854-.130127.1599731-.1901855.4200439-.5.8500366-.9897461 1.2900391-1.4697266.1599731-.1801758.3300171-.3400879.4899902-.5102539.3499756-.369873.710022-.7299805 1.0700073-1.0898438.1799927-.1801758.3699951-.3500977.5599976-.5300293.3599854-.3400879.7299805-.6799316 1.1099854-1.0100098.1900024-.1601562.3699951-.3200684.5499878-.4799805.4400024-.3601074.8900146-.7199707 1.3400269-1.0700684.1300049-.0998535.25-.2099609.3800049-.3098145.6099854-.4501953 1.2299805-.9001465 1.8599854-1.3200684.0100098-.0100098.0200195-.0200195.039978-.0300293.6000366-.3999023 1.2200317-.7900391 1.8500366-1.1601562.039978-.0297852.0899658-.0598145.1300049-.0898438 0 .0100098 0 .0100098-.0100098.0200195 4.289978-2.5400391 9.0599976-4.3100586 14.1599731-5.1601562 0 0 .0100098 0 .0100098-.0097656.0800171-.0102539.1600342-.0200195.2399902-.0302734.2300415-.0397949.4700317-.0698242.710022-.0998535.4099731-.0600586.8200073-.1101074 1.2299805-.1599121.2300415-.0200195.4500122-.0500488.6799927-.0700684.460022-.0400391.9300537-.0800781 1.3900146-.1101074.1799927-.0100098.3500366-.0200195.5300293-.0297852.6499634-.0302734 1.3099976-.050293 1.9699707-.050293.6799927 0 1.3599854.0200195 2.0400391.050293.1199951.0097656.2399902.0197754.3599854.0297852.1300049 0 .2600098.0200195.3900146.0300293.4099731.0200195.8199463.0500488 1.2299805.0900879.2399902.0200195.4799805.0498047.7199707.0800781.1500244.0200195.3000488.0297852.4400024.0498047.2700195.0400391.5300293.0700684.7999878.1101074.2800293.0400391.5500488.0900879.8200073.1298828.3699951.0600586.7400513.130127 1.1100464.1999512.2799683.0500488.5699463.1101074.8499756.1801758.3099976.0600586.6099854.1298828.9000244.1999512.1099854.0300293.2099609.0500488.3099976.0700684.2299805.0600586.4599609.119873.6999512.1799316.3400269.0998535.6800537.1999512 1.0300293.3000488.2700195.0800781.539978.1599121.8099976.2399902.3699951.119873.7399902.25 1.0999756.3798828.2400513.0800781.4700317.1601562.7000122.2399902.0700073.0300293.1300049.0500488.2000122.0700684v.0100098c.0800171.0200195.1500244.0600586.2299805.0900879.5700073.2199707 1.1500244.4499512 1.710022.6999512.1900024.0800781.3900146.1699219.5800171.2600098.4899902.2299805.9799805.4599609 1.4599609.6999512.2000122.1000977.4100342.2099609.6100464.3100586.4799805.25.9599609.5200195 1.4299927.7900391.1699829.0998535.3499756.1999512.5299683.2998047.5700073.3500977 1.1300049.7001953 1.6799927 1.0700684.0599976.0400391.1300049.0700684.1900024.1101074.6199951.4199219 1.2300415.8598633 1.8300171 1.3100586.1199951.0898438.2399902.1999512.3699951.2897949.4500122.3500977.9000244.7102051 1.3400269 1.0800781.1900024.1599121.3699951.3200684.5599976.4799805.3699951.3200684.7299805.6501465 1.0799561.9799805.2000122.1799316.4000244.3701172.5900269.5600586.3400269.329834.6699829.6699219 1 1.0100098.1900024.1899414.3699951.3798828.5499878.5800781.3599854.3798828.710022.7797852 1.0499878 1.1799316l32.4400101 32.4399452c-2.7299805 30.8400879-27.3299637 55.3898926-58.1999588 58.0300293l-34.4000249-34.3999024c-.5700073-.5600586-1.1199951-1.130127-1.6500244-1.7099609-.0700073-.0800781-.1399536-.170166-.2099609-.25-.5-.550293-.9700317-1.1201172-1.4400024-1.7001953l-.1799927-.2099609c-.1000366-.1401367-.210022-.2800293-.3099976-.4199219-.1800537-.2299805-.3600464-.4599609-.5300293-.7001953-.2000122-.2700195-.3900146-.5397949-.5800171-.8098145-.1599731-.2299805-.3200073-.4602051-.4799805-.6901855-.2199707-.3398438-.4299927-.6799316-.6500244-1.0097656-.2099609-.3400879-.4099731-.670166-.6099854-1.0102539-.2000122-.3398438-.3999634-.6899414-.5899658-1.0397949-.1500244-.25-.2800293-.5200195-.4100342-.7700195-.1499634-.2900391-.2999878-.5700684-.4400024-.8601074-.1400146-.2797852-.2699585-.5600586-.3999634-.8398438-.1300049-.2800293-.25-.5500488-.3800049-.8300781-.1199951-.2900391-.25-.5900879-.3699932-.8798828-.1100464-.2802736-.2200317-.550049-.3300171-.8300782z" opacity=".1"/><circle cx="69.997" cy="69.998" fill="#ededed" r="41.165"/><path d="m101.5047455 95.2922745c4.356369-4.8311081 6.5787659-13.6073456 6.9091339-20.023613.3791656-7.3650208-.3398285-14.7558479-2.935257-21.6811447-.4415131-1.1783295.2598495-2.0224571 1.1927032-2.3000641-1.0368423-2.026989-2.231842-3.9593811-3.5779724-5.7733459-7.5043411-10.1235276-19.5412215-16.6779538-33.0979766-16.6779538-22.7303162 0-41.1589966 18.4284878-41.1589966 41.1588669 0 9.6213989 3.2976856 18.4693069 8.8206997 25.4715729 4.5598221 5.7946167 10.6393318 10.3270416 17.6415329 12.9868546 4.5597572 1.7641449 9.5128059 2.7141113 14.6967659 2.7141113 6.5952454 0 12.8375092-1.5470886 18.3607788-4.3153687.6921616-.3392487 1.356987-.7057037 2.0219421-1.08564 1.6555557-.9363632 3.2432632-1.9948654 4.7360611-3.1618881 1.533287-1.1670227 2.9719162-2.4562378 4.3016968-3.8404465.3936081-.3799362.7600021-.7735443 1.112854-1.1670227.1696548-.1871567.330368-.3826141.4967041-.5729065-.1230259-.5645389-.0132923-1.1857394.4793301-1.7320117z" fill="#ededed"/><g fill="#4da0dc"><path d="m111.1678391 69.9950333c0 10.625618-4.0303574 20.3148804-10.639122 27.6021576-.0407486 0-.0814972-.0135803-.1358337-.0135803-.3120956-.013588-.5970154.2985916-.719101.5292664-.1085052.2170868-.1492538.4478378-.2579269.6513443-1.3298721 1.3842087-2.7684097 2.6734085-4.3016968 3.8404388-.1086731-.0135803-.2307587-.0135803-.3528442-.0271683-.488678-.0406647-.570015.2442551-.7871857.6106873-.2577591.4070892-.6785202.8006821-1.1398697.9906082-.5292587.2171707-1.1262741.3121719-1.6827087.4206772-.3528442.0679169-.5020981.0950012-.6241837.4614258-.081337.2170944-.1220856.4749298-.1492538.7056885-.6649323.3799286-1.3298721.7463531-2.0219727 1.0856094.0271683-.9771042.6649323-1.77771.7056885-2.7684021.0135803-.2170944-.0407562-.4613495.0135803-.6785202.0541687-.257843.2034225-.3120956.2985077-.5291824.1085052-.2714233.2577591-.8413544.0271683-1.0585251-.312088-.2849274-.7328491-.2849274-.8279343-.8006058-.0271683-.1493378 0-.2714233.0135803-.4342651.0271683-.4750137.0407486-1.0313568-.1356735-1.4792023-.1492538-.3799286-.5971756-.583519-.9906082-.5563507-.3800049.0135803-.7192688.257843-1.0855255.1220856-.1901703-.0678329-.2850952-.2849197-.4750977-.3528442-.1764221-.054245-.2985077-.0270844-.4749298-.0270844-.4749298.013588-.9636078.0406723-1.4383698.013588-.3664322-.013588-.6921082-.1628418-1.0313644-.2850113-.5158463-.1628342-.6379318-.4070892-.9092712-.7871017-.2171783-.3120956-.4885178-.5292664-.6921082-.8413544-.067749-.0950012-.1764145-.1900101-.244339-.2849274-.1084976-.1764221-.1084976-.3664246-.1898346-.5292664-.163002-.298584-.5430145-.4070892-.6513519-.7463531-.0950851-.2850037-.0407486-.6785126 0-.9635239.0270004-.2578354.2305908-.6513519.1083374-.882103-.1355057-.257843-.5562668-.1764221-.7734375-.1764221-.4749298.0271683-.6513519.1493378-.9228592.556427-.1898422.2849274-.325676.5020981-.3392563.841362-.013588.2442551-.0541687.5970993.0135803.8277664.0815048.3392639.4750977.4206772.6379318.7192688.1900101.3528442.081337.7870255.244339 1.1398697.1490936.3121719.1490936.5020905.1762619.8413544.0950851.6785202.7328491.81427 1.3026962.8006897.2309265-.013588.8686905-.1221695 1.0449448.1085815.17659.2306747.0407562.8820267.0407562 1.1398697 0 .2306671.0407486.4885101-.013588.7056808-.081337.3392563-.3528442.5563507-.5834351.7871017-.3935928.3935165-.6513443.6106033-1.1807785.8548584-.3662567.1764221-.7462692.4342651-1.1532822.4614334-.4207611.0135803-.7871857.1492538-1.2079468.2170868-.4611816.0679169-.9634399.0679169-1.4247894.1764221-.2985077.0814209-.5428467.2714233-.8549423.2985916-.1900024.0271683-.3664246.0135803-.5562592.0135803-.4071808-.0135803-1.0449448.0814209-1.4657059-.0135803-.2035904-.0542526-.4071808-.2442551-.597023-.325676-.2171707-.0950012-.4343414-.1493378-.6649323-.1628418-.4479294-.0135803-.9500275-.0407486-1.384201.0950089-.4479294.1356659-1.1264496.3663406-1.5742111.0949173-.2171707-.1220856-.1764221-.1492538-.2850876-.3527603-.0949249-.1493378-.2305908-.244339-.3528442-.3800125-.1355057-.1221695-.4475937-.3799286-.4611816-.569931-.0135803-.1221695.1219254-.2442551.1762543-.325676.2171707-.3257599.4615173-.6378479.6649399-.9771042.325676-.515686.6649323-.8685303.7600174-1.4927139.0679169-.4070892 0-.7328491-.0950851-1.1127777-.1898422-.7192688-.1220856-1.4384537-.1220856-2.1713104 0-.4206772-.0949249-.9227753.081337-1.3026962.1086655-.2442627.3122559-.4070969.3664246-.6785202.1222534-.5292664.0271683-1.2077866.0271683-1.7506332 0-.4341736.2035828-1.3705368-.2985077-1.533371-.760025-.2714233-1.167038.4341736-1.1262817 1.0856094.0270004.515686-.2307587.895607-.2579269 1.3977051-.0135803.3935928.0950851.827774-.0407486 1.2077866-.149086.3800049-.5290985.5428467-.719101.8685226-.1628418.312088-.0543365.7735214-.0543365 1.1127777.0135803.4477615-.0405884.7463531-.2171707 1.15345-.162674.3800049-.4341812.7056808-.5155182 1.126358-.1494217.6785202.013588 1.3027039.013588 2.0083923.0270004.6378479-.0543365 1.3706207-.4750977 1.8727188-.2441711.2985077-.3528442.3664246.0135803.6106796.5428467.325676 1.085701.6241837 1.6827164.8549423.4071732.1492538.8549347.2849197 1.2349472.5020905.3528442.2170944.6649323.1764221 1.0719452.271431.488678.1220856.9771957.2849197 1.4521255.4341736.2035828.0679169.7871857.0407562.8549347.2307587-.3664246.4885101-.6785126.5835114-1.2485275.6241837-.5426865.0543365-.9634476.1493378-1.4655457.3528442-.3800049.1628342-.6785126.3664246-1.0041885.6242676-.4477615.379921-.8006058.5563431-1.411377.5563431-.5835953 0-1.0855255-.0406647-1.6555405.1493378-.6921005.2442551-1.3028717.5427628-2.0627213.583519-.990612.0270844-2.0355568-.1900101-2.9990005.0270844-.8821068.1900024-1.6962929.1764221-2.5919838.1764221-.2305908 0-.4479294.0135803-.6785202 0-.5834312 0-1.3298683-.1628418-1.872715.1357498-.081337.0406723-.162838.0950012-.2307549.1492538-7.0021896-2.6598206-13.0816879-7.192276-17.6414757-12.9868469.2715073-.1900024.5564308-.4070969.7192688-.6921005.1222534-.2170944.1086693-.3528442.1764221-.5970993.1085014-.4070969.3122559-.6377716.2986717-1.0856171-.0135841-.3935089-.163002-.7327652-.2307549-1.1127777-.0543327-.3528442-.081337-1.1806183.244339-1.4248734.2034225-.1628342.6785202-.0950012.9226913-.1492538.2577591-.0678329.5156822-.2171707.7464371-.3528442.6105995-.3664246.5834351-.7327652.3528442-1.3434525-.1222534-.3121719-.1358376-.6242676-.2173386-.9363556-.1083374-.3935928-.3798447-.6785202-.5970154-1.0041962-.325676-.4885941-.3800125-.9906921-.5426826-1.5470428-.0543365-.2171707-.1222534-.556427-.2986755-.7328491-.081337-.0814209-.2171707-.1356735-.3120918-.2170868-.325676-.2850113-.4205933-.7599411-.6243477-1.1399536-.2034225-.3935089-.4070129-.7734375-.7055206-1.0991898-.4205971-.4341812-.8141899-.8684464-1.2077827-1.3434601-.244175-.2985077-.5698509-.5156784-.8007698-.8005981-.2034225-.257843-.2577591-.570015-.4340134-.8142776-.2037544-.2713394-.3935928-.3935089-.5294304-.7463531-.2849236-.7463531-.8141899-1.5605392-.8955231-2.3883972-.0815048-.7735214-.0135841-1.6148758 0-2.3883972.0135803-.4749298.0543327-.9906082.1626701-1.465538.0679169-.3121719.1901703-.6378479.3528442-.9092712.0407486-.0542526.2173347-.3120956.2309189-.4070969.0541687-.3120956-.081501-.6513519.0134201-.9906082.0949173-.257843.2850876-.3935165.4749298-.583519.2985077-.3121719.7056847-.6514359.9634438-1.0041962.2309189-.3121719.2715034-.6921005.4343414-1.0313568.2171745-.3935928.5834351-.5564346.9634438-.7599411.3120918-.1900024.5294304-.2578354.8822746-.230751.5290985.0407486.8683548-.2035065 1.2755318-.5427628.2577591-.2171783.4613457-.4342651.6241837-.6921082.0950851-.1492538.1492538-.3664246.2713432-.5020981.2579231-.312088.6785164-.6378479 1.0992775-.6649323.3800125-.0135803.7464371.0135841 1.1264458-.0407486.3120918-.0406685.6106033-.1220894.9226952-.162838.4479256-.0542526.9091072 0 1.3706169-.0135841.4343452 0 .8006058-.0542526 1.2212029.0814171 1.0721092.407177 1.9272156 1.1263618 3.0533295 1.3842049.5971832.1356735 1.2215347.0678329 1.8185501.1764221.2713394.0407486.4749298.0407486.7464371-.0271683.4070091-.1220856.8140221-.312088 1.221199-.0678329.1765862.0950012.3120918.2850037.4750938.3935089.1898422.1221695.3934288.1764221.5698509.2985916.2849236.1900024.5428467.4885101.7600212.7735214.3120918.4342575.6513481.8413544.9770241 1.2484512.1900063.2714233.325676.6513519.5562668.8956909.244339.2578354.6785202.2849197.9636078.5155945.325676.2714233.3798447.7464371.8413582.8549423.2985077.0814209.556263.0950012.8549385.230751.2715073.0950089.6243477.1220932.8006058.3663483.325676.4478455.3392601 1.0313568.7736015 1.4384537.5970192.5428467 1.4383736 1.2621155 1.234787 2.1713104-.1762581.7463531-.8006058 1.3570328-1.0041962 2.0898056-.0949173.2985916-.1220856.556427-.0543327.8413544.0543327.1764221.163002.325676.2037544.5156784.0405846.2850113-.0271683.5970993.0541687.8821106.0813332.2578354.2715073.5156784.4070091.7599335.2309227.4070969.4207611.827774.6379356 1.2348709.244339.4614258.6243477.8006897 1.1534462.9227753.3800087.0814133.6105995-.2170944 1.0041924-.0814209.244339.0814209.6513519.2985916.760025.570015.0679169.2170868.0135803.9363556.0407486 1.0448608.0541687.3800125.1355057.8821106.325676 1.2213669.2849197.5020981.8006058.7735214 1.3162842.9906082.3935928.1628418.8683548.257843 1.2076187.5428467.3664246.3120956.4343414.7191925.6243439 1.1263657.2443466.5020981.8141937.6106033 1.2485352.9091949.3120956.2306671.5290985.4885101.9498596.5563431.5564346.0678406 1.2891235.1085892 1.8591385.0271683.3935928-.0542526.7462692-.312088 1.1398621-.3800049.4207611-.0949249.9092712-.2442627 1.0313568-.7191925.0679245-.2850037.0950851-.9091873-.0135803-1.1806107-.0949173-.2985916-.4883499-.3528442-.7328568-.5020981-.3662567-.2171707-.6649323-.4070969-1.0855255-.5020981-.1900024-.0407486-.3798447 0-.570015-.0814209-.4341812-.1628342-.8955231-.7192688-1.2483673-1.0313568-.3528442-.3121796-.5156784-.583519-.5292664-1.0585327-.0271683-.325676-.081337-.8413544.1085052-1.1262741.5835953 0 1.126442-.013588 1.6827087.1356659.5564346.1356735 1.085701.2306747 1.6419601.2442551.5022659.013588 1.1264496-.0542526 1.4657059-.5020981.3528442-.5020905 0-1.3163681.597023-1.6827087.5022583.637764.9364395 1.2348709 1.3028641 1.9541397.325676.6241837.570015 1.1941986 1.2892838 1.3976974.325676.0814209 1.9540558.2442627 1.8453827-.4885101-.0271683-.257843-.5562668-.4885101-.6921005-.6649323-.4205933-.4885178-.7192688-1.1127853-.8140259-1.7370453-.0950851-.5427704-.3122559-.5427704-.7192688-.8549423-.2985077-.2306747-.4343414-.583519-.7328491-.827774-.3664246-.2849197-.6241837-.5970993-.8143539-1.0177765-.162674-.3528442-.0541687-1.0584488-.325676-1.3162842-.2034225-.1900024-.7056885-.1221695-.9634399-.1221695-.325676-.0542526-.597023.0407486-.8141937.2714233-.2850876.2714233-.5971832.4885101-.9364395.6513519-.2441711.2714233-.1355057.6785202-.1355057 1.0041885.0135803.3664322.081337.7056885-.1086655 1.0177841-.2849274.4478455-1.3027039.9092712-1.8049698.81427-.4611816-.0678406-.4475937-.4614334-.6241837-.8006897-.162674-.257843-.3392563-.5020981-.5290985-.7463531-.2579193-.3799286-.6107635-.583519-1.0585251-.583519-.2035904.1221695-.2579269.2985077-.1494217.5020981 0 .0678406 0 .1085892-.0135803.1764221-.081337.2442551-.909111.6921005-.9498596.7056885-.3664322.1220856-.760025.2713394-.8547745-.1764221-.013588-.1357574.0134125-.3121796.0134125-.4478455.013588-.5563507.1220932-.9499435.570015-1.2891998.4749298-.3663483.7870255-.5563507.841362-1.2077866.0405807-.5563431.0270004-1.0991974.2171707-1.6555405.0543365-.1900101.149086-.4070969.1898422-.6106873.0679169-.5020981.0950851-1.0177765.0950851-1.5334549 0-.3528442.1356659-1.1262817-.2441788-1.3434525-.1222534-.013588-.2309189-.0406723-.3528442-.0542526-.1765823 0-.2579193.0814209-.244339.2306747-.1764221.2306671-.1084976.3935089-.4477615.5020981-.2579193.0950012-.9906082.2442551-1.2349472.0407486-.1220856-.0950012-.0949173-.2850113-.0949173-.4206772v-.9228592c0-.2713394.1219177-.7870255-.0271683-1.0584488-.3664322-.5835114-1.2757034 0-1.642128-.4478455-.244339-.2849197-.0677567-.7735214-.2985077-1.0991898-.1900101-.271431-.5292664-.7871094-.9228592-.7327728-.1220856 0-.2305908.1492538-.325676.1764221-.1898384.0678329-.5019302.0406647-.6513519 0-.1220856-.0271683-.2441711-.0950012-.3528404-.1493378-.244175-.0814209-.4613457-.0678329-.7192688-.0678329-.4747658 0-.9634438-.0270844-1.4519577 0-.4885139 0-.9228592.2171707-1.4112053.2442551-.7600212.0135803-.7736015-.3799286-1.0992775-.9363632-.2713432-.4341736-.7056885-.6785126-.9634438-1.0991898-.325676-.5427704-.6513519-1.1127014-.9364433-1.6963005-.1900024-.407093-.4885101-.8684387-.5564308-1.3162842-.1220856-.6242676.7871895-.3800087 1.153614-.5428467.4070129-.1899223.7734375-.6649361 1.1668663-.827774.3664246-.1220856.8007698-.1356697 1.1807823-.1356697.3392563-.0135841.9906082-.1764221 1.3027.0406685.1356697.0950012.1222534.2442551.1900063.3664246.1764221.3528442.4341774.6106834.570015.9770279.1220856.3664246.2713394.6921005.3800087 1.0585289.1083374.3120918.325676.569931.6513519.7191849.4205933.1764221.8955231-.0542526 1.2891197-.2578392.2441711-.1356697.6921005-.407093.8549385-.6513519.1628342-.2442551.0949173-.4478455.1220856-.7056847.0271683-.2985077.1222534-.3799286.2577591-.6105995.2037506-.3664284.4343414-1.2213669 1.0313568-1.0585289.2985153.0950012.6243515.5020981.8956909.6649361.3392639.2171707.5836029.4614258.9092789.7192688.2441711.1764183.5020981.4613457.7736053.5835152.2985077.1356697.8819351.0950012 1.1940308.0542526.488678-.0542526.8956909-.325676 1.3162842-.0135841.325676.2714233.5430145.4614258.9500275.5835991.230751.0678329.5020981.1220856.7462692.1492538.4071732.0542488.3664246.0406685.5430145-.2171745.2305908-.3527603.3392563-.5427628.7732697-.6377678.4071808-.0950012.7464371.0271683 1.0585251.2442589-.1762543.3664246-.3800049.732769-.6105957 1.0720291-.1086731.2307549-.0950851.4206734.0679169.5835152.1356735.3664246.4341812.7056885.5562668 1.0992813.1086655.2577515.1222534.4341736.1222534.7055969-.013588.4342651.0949173.5970993.3800049.8685226.3120956.3120956.597023.5699387.9906158.7463608.4613419.1900024.7734375-.0271683 1.1534424-.257843.5564346-.3663406.8006058-1.0313644 1.5334625-1.0041962.5020981.0271683 1.3570328.2035904 1.7777939-.1356659.3392639-.2714233.2170105-.7599411.271347-1.1399536.0407486-.3528366.0813293-.6106796.0813293-.9499359.013588-.7191887.6107712-.9227791 1.2077866-1.1127815.8956909-.2849274 1.9404678-.6241837 2.1170578-1.6691284-.7871933-.2442589-1.8998871-.1220894-2.6463242.2578392-.5428467.2850075-.9906082.895607-1.4519577 1.2891998-.244339.2714233-.5428467.4613457-.882103.5699348-.244339.0950012-.4749298.2035866-.7192688.3256721-.3526764.2442551-.6377716.6514359-1.1127014.6921005-.2713394.0271683-.6105957.013588-.8685226 0-1.5334549-.054245-.3392563-1.5334549-.2715073-2.3205605.0271683-.4885101-.0541687-.732769-.5019302-.800602-.312088-.0407524-1.0313568-.1764221-1.0585251-.6378517-.013588-.3663445.4749298-.5563469.7056808-.7463531.4070129-.3799286.7192688-.8820229 1.1532822-1.221283.7328568-.5970993 1.8592987-.3664284 2.7548294-.3664284.570015.0135841 1.0992737-.1221695 1.6555405-.1221695.7192688.0135841 1.4385376-.0135002 2.1578064 0 .1492538-.0135002.2985077 0 .4479294.0271683.1762543.1221695.3798447.2171707.5970154.2850075.2985077.0950012.6106033.0542526.9226913.0542526.3800125 0 .7736053-.0135841 1.1400299.0678329.4071808.095005.4071808.3392601.3528442.7192688-.0407486.2442589-.0950851.5020981-.1358337.746357.0543365.2170868.17659.3664246.3800125.474926.3392563.3392601.4343414.7328529.6921005 1.1127815.0814972.162838.2171707.2442551.3935928.2714233.2441711.1764221.4749298.3664284.6921005.569931.2849274.257843.5019302.5292664.909111.570015.6785126.0542526 1.3706207-.0135803 2.0491333-.0135803.2577591 0 .6377716.0814171.8821106-.0135841.1764221-.0542526.2986755-.1900063.3664246-.3664284.1900024-.1764221.4070129-.325676.6241837-.4749298.5428467-.6106834-.0270004-1.6420441.6107635-2.2255592.5155182.3528442.0407562.990612 0 1.3842049-.0271606.2442551.013588.5835152.0271683.8413544.0271683.3799286.2985077.6513519.5290985.9227753.2171783.2714233.7192688.7599411 1.1264496.5292664.312088-.1900063.3664246-.8413582.4885101-1.1399498.1628418-.3663406.3392639-.6513481.5971832-.9634399.5426865-.6514359 1.2076187-1.2077827 1.6147919-1.96772.2034225-.3935928.1356735-.8821068.3392639-1.2620354.1085052-.2171707.2577591-.3121758.325676-.5564308.1220856-.4613457 0-1.1670303 0-1.6555443-.013588-.2442589.0135803-.4614296.0679169-.6921043.1219177-.4614258.2577591-1.0177765.474762-1.4520378.5971832.1221695.9500275.6649361 1.5200424.7735214.3800125.0678368.827774-.0135841 1.2076187 0 .1494141 0 .3935928.0542526.5294266-.0407524.2305908-.1764183.3528442-.7735176.3798447-1.0312767.0271683-.4207611-.0134201-.8685226-.0134201-1.2756195 0-.3664246-.0271683-.7328491-.0135803-1.0856934.0270004-.3392601.1219177-.6105995.312088-.8820229.1762543-.2307587.4477615-.3392601.5290985-.6378517.1086731-.4206772.0543365-1.0991974.0271683-1.5469589-.0271683-.2714233-.0949173-.5292625-.3392563-.7056847-.1628418-.1357536-.4477615-.162838-.5970154-.325676-.2577591-.2578392-.1630096-.6785202-.1494217-1.0177765 0-.3528442-.013588-.6785202-.013588-1.0449448 5.0754701 6.8394318 8.0744707 15.3209114 8.0744707 24.4809075z"/><path d="m100.6685638 43.5206909c-.1893387-.0656052-.3568192-.2110367-.5461655-.2547722-.145607-.0291595-.3058014.014576-.4515839-.0364494-.1893463-.0656013-.2474823-.1893463-.3568268-.3422432-.2110367-.2841072-.5680313-.4515839-.5680313-.8229866-.0071182-.1601906-.0435638-.3930931-.0145798-.5461693.0364456-.1747665.1966324-.269352.2403717-.4368286-.1310349-.2549515-.8665466-.1166306-1.0923386-.0364456-.2329102.0801811-.4078522.1893425-.6699142.1383171-.3349533-.0727158-.6263504-.4222488-.8519669-.6626205-.1166306-.1383171-.2039261-.3786888-.3641129-.4734535-.2549515-.145607-.5826111-.1601868-.8448563-.3057976-.3349533-.1820564-.6699066-.3932686-.8811188-.7136459-.1310349-.1820564-.2403717-.3786888-.3859863-.5607452-.2039185-.2547722-.5024261-.3568268-.7573776-.5534592-.1456146-.1164513-.2620621-.2695312-.4005585-.3932724-.2985077-.2620583-.6261749-.2474823-.975708-.4078484-.2185059-.0945816-.3786926-.2183228-.5680389-.3641129-.2257919-.1745872-.4442978-.276638-.7136459-.3786888-.4151382-.1600113-.7865448-.3276672-1.143364-.5897293-.1529007-.1093407-.2403717-.1820564-.3932724-.2330818-.3276672-.0945816-.5388794-.3203773-.8228073-.487854-.2185059-.1312065-.4078522-.2403717-.6117706-.3932686-.1674805-.1383209-.3130875-.1820564-.4005661-.3786926-.058136-.1237411-.0872879-.4005585-.2183228-.4586945-.1093369-.0510292-.233078.014576-.3570023-.0437393-.2329025-.1166267-.3566437-.2913971-.5024338-.4953194-.1310272-.1820564-.2401886-.2037468-.4295349-.2985077-.2039261-.0947647-.3859787-.2330818-.575325-.3495369-.3203812-.1820564-.3349609-.4659843-.4224319-.8084068-.0291595-.1237411-.0583115-.2474823-.0872955-.3712234-4.5149612-1.6968231-9.4014969-2.628973-14.5063629-2.628973-2.3011322 0-4.5514145.1893463-6.7506676.5534592-.0071106.0145798-.0216904.0291576-.0362663.0437355-.1457901.1383209-.2768173.2112141-.3132668.4222507-.0291557.1893463.0291595.3932705.0145798.5826149-.0145798.1601887-.0800056.4370079-.2257919.5315914-.1091652.0656033-.3495331.0656033-.4805641.1166286-.1747665.0654278-.3203773.1891689-.4586983.3057976-.1384964.1091633-.3132629.1601887-.4151382.3057995-.1020508.1457863-.1166306.3278446-.1383209.5024319-.0364456.218502-.0947609.3495331-.2403717.5098991-.1966324.2183266-.145607.4805641-.0510254.7573853.1020508.276638.2913971.5387001.4734535.764492.1237411.1603661.1091652.1457863.1601906.298687.0510254.1237411-.0218697.0654259.1091614.1528969.2549515.1674805.5826149.0218697.8302765.2257957.1091614.0872917.1820564.2037468.3057976.276638.1091614.0656052.2112122.0800056.3203773.1456108.2330818.131031.3349533.5097198.4805641.7282257.1457863.2330818.0728951.4151382.1093407.6772003.0583153.4588737.4368248.5461693.8665428.5826149.19664.0218658.4588776-.0510254.6482239.0145798.0800018.0218658.2401886.2039223.2620621.218502.0947571.0800056.3130875.1747665.3641129.2912178.0291519.0510254 0 .1603661 0 .2039261-.0145798.1676559.0072861.5097198-.1456146.6409302-.0510254.0437355-.2476578.0945816-.2985077.1164513-.1747665.0801849-.575325.1820564-.6773758.3422432-.1310272.1820564.0145798.4078522.1093445.5680389.145607.2549515.2547684.4005585.5680313.4588737.1237411.0291595.2839279.0508499.4076767-.0072899.1239166-.0656052.1893387-.2039223.320549-.2549477.1164551-.0510254.2620621-.0581398.3859787-.0801849.1164551-.0216904.2256165-.0362701.3130875-.1237411.0727158-.0583153.109169-.1747665.1820602-.2257919.1383209-.1091614.9102783-.189167.9758835-.0291595.0800095.1676559.0071106.5827942-.1020508.7211151-.1383209.1674767-.2620621.1820564-.2695236.414959-.0145798.429718.1895218.6263542.3424149.997757-.4807358.3932686-1.005043.2839279-1.5657883.2985077-.1820526.0072899-.4151382.0437355-.5607452.1530762-.1674805.1237411-.1383209.269352-.058136.4295387.1164474.2476616.2985077.5461693.4659805.7573814.0947647.123745.2039261.2549515.3568268.2985115.2766418.0801811.662796.0291557.9467316.0218658.3713989-.0072899.7282181-.1018715 1.0996246-.0654259.2549515.0289803.6553268.1820564.8665466-.0364456.087471-.0874748.1091614-.2476616.2039185-.3276672.1018753-.087471.2476654-.0801811.3714066-.0801811.2474823.0072861.342247-.0072899.5242996-.1747704.3058014-.2622375.7282257-.1166267 1.0777588-.2549477.1239166-.0437355.2112122-.1164513.342247-.1601868.1747665-.0581398.3495331-.0510292.5315857-.0510292.2768173 0 .5607529.0583153.8156967-.0727158.0945892-.0510254.1529007-.1164513.2620621-.1384964.1239243-.0289803.2695312.0074692.4005661.0074692.1674728-.0074692.3059692-.0364494.4661636-.0728951.2693481-.0728951.5605698-.087471.7863617-.2476616.2549438-.1820564.2039185-.5170097.1966324-.8082314-.0072861-.1239166-.0072861-.2257919-.0437393-.3422432-.0435562-.1383209-.145607-.2403717-.1745834-.3714027.6699066-.087471 1.3616867.0289803 2.038887-.0510254.4515839-.0583153 1.0850449-.5461693.8302765-1.0413132-.087471-.1530762-.2185059-.3276634-.3786926-.4078484-.1893463-.0872955-.4515839-.0218658-.6555099-.0218658-.2401962.0072899-.5826187.0656013-.8009415-.0654297-.2986832-.1966324-.429718-.5899048-.8302765-.6409302-.2620621-.0364456-.5315857-.1164513-.7719574-.2549477-.1383209-.0800056-.254776-.2039261-.3420715-.3349571-.1020508-.1528969-.1239166-.1966324-.0510254-.3495331.1018753-.2039261.4005585-.3203773.5971985-.4078484.1820526-.0800056.291214-.0872955.487854-.0945854.1747665 0 .3641129.0364494.5315857-.0364456.1383209-.0583153.1456146-.1091614.2474823-.2112122.2476654-.2474861.9685974-.1383209 1.2889786-.123745.2913971.0072899.5971909.0583153.8811188.0291595.1020508-.0145798.2257919-.0728951.3278427-.0656052.1820602.0145798.3130875.1747665.4368286.2768173.138504.1164551.2185059.1820564.4005661.1529007.1966324-.0364456.3859787-.1237411.5971909-.0801849.2330856.0583153.2839279.3059769.3859787.4805679.1091614.1820564.2474823.2913933.3932724.4297142.2912216.2622414.4076691.4515877.4149628.8521461-.3714066.2037468-1.0121536.276638-1.2452393.6261749-.1237411.1820564-.1747665.5097198-.145607.7209358.0656052.5607452.8155212.6117706 1.2671051.5971947.233078 0 .5461655-.0656052.7719574 0 .2112122.0654259.2766418.2620583.4078522.414959.1745911.2041016.3422394.2841072.5970154.298687-.2985077.5970154-1.1069183 1.1214943-1.7841187 1.0777588-.4005585-.0291595-.7792511.0437355-1.1579437-.1601906-.203743-.1093369-.378685-.218502-.5170059-.4078484-.0800095-.1091614-.1018753-.145607-.2474823-.1601868-.1166306-.0145798-.4880371-.0364456-.6117783.0145798-.0872955.0364456-.1601868.1383209-.233078.1893463-.1747665.1164513-.4224319.1383171-.5242996.3495331-.1018753.2039223-.1164551.5097198-.1237411.7355156-.0145798.487854.2766342.6407509.6990662.6990662.291214.0437355.5680389.1528969.8592529.1674767.1457901.0145798.2986908-.0072899.4442978-.0072899.3495331 0 .7646713-.058136 1.1069183 0 .1893463.0364494.3349533.1456108.5242996.2039261.2329025.0800056.4514084.0728951.7063599.0800056.2547684.0074654.4151382.0366249.6626205.1312065.1820526.0728951.3203735.0945854.5170059.0945854.8957062-.0216904 1.7915878-.0071106 2.6872864-.0071106.3495331 0 .7063599.0216904 1.0558929 0 .1018753-.0074692.2985077-.0801849.3859787-.0074692.0872955.0874748.1310349.3570023.1893463.4661636.0727158.1456108.1164551.2185059.1091614.3786926-.0072861.1383209-.0218658.269352.0072937.4078484.0291595.1820564.1310272.3495331.1383209.5387001.0145798.3132668-.0144043.3351364-.2256165.5753288-.1457901.1603661-.4005585.2039223-.5899048.3278427-.1820602.1164513-.2912216.2183266-.5170135.2401924-.1747665.0145798-.3424225.0072899-.5170059 0-.3932724-.0072861-.8011246.0510254-1.1943893.0291595-.2112198-.0072899-.4587021-.0656052-.6553345-.1383209-.2330856-.0801811-.4151382-.1018715-.6482239-.1093407-.3057938-.0145798-.5388794-.0945854-.8009415-.2256126-.2549438-.1239204-.5461655-.2549515-.8302765-.2768211-.1893387-.0072899-.2693481-.0583153-.4297104-.1674767-.0727158-.0508461-.1600113-.1018715-.2329102-.1674767-.0364456-.0364456-.1383133-.1820564-.1966324-.211216-.2549515-.1091614-.4732742.1166306-.6263504.2913971-.2401962.269352-.4659882.5388794-.7209396.8009415-.1164474.1166306-.203743.2185059-.3713989.2549515-.1529007.0291557-.4149628.0145798-.5751495-.0072899-.2185059-.0437355-.3786926-.218502-.5680389-.3422432-.2257919-.1529007-.4005585-.2330818-.6700821-.2330818h-1.2452393c-.2112122 0-.4295425 0-.6407547-.0072899-.0728912 0-.2039261-.0291595-.2695312 0-.1966324.0656052-.3422394.4515839-.3932648.6263504-.1674805.5971947.2549438 1.1942101.6700821 1.5801926.0727234.0656052.1529007.1601868.254776.2039261.1312103.0583115.2986832.0437355.4224243.1164513.2912216.1747665.2695312.5680351.6336441.6336403.4659882.0872955 1.2452393.0289803 1.4708557.5680389.0437317.1018715.0364456.2329025.0801773.3422432.0583191.1674767.1529007.2620621.2620621.4005585.1530762.1966362.1312103.4222488.284111.6334648.2474823.3495331.6407471.6117744.9394379.917572.2039261.2112122.400383.3495331.6844864.4224243.5534592.1456108 1.2087936.0583153 1.7695389.0654297.3786926 0 .7282257-.0727158 1.1142044-.0727158h4.959259c.2112122 0 .3568268.0364456.5170135-.1020546.1966324-.1747665.3203735-.4732742.3786926-.7209358.0291519-.145607.0510254-.3130836.0364456-.4659843-.0218735-.2112122-.1164551-.3422432-.2112122-.5242996-.1601944-.3203773-.0656052-.7646713-.0728989-1.1214981 0-.2841072 0-.356823.1530762-.6044807.0508499-.0654297.0727158-.1237411.1237411-.1893463.1601868-.1893463.4078522-.2330818.6044846-.3786926.2183304-.1601868.2037506-.3349533.19664-.5826149-.0074692-.2620621-.0074692-.5241241-.0074692-.7936516 0-.1312103-.0289841-.2912216-.0071106-.4224281.0508423-.2985077.2693481-.4224281.2183228-.7500954-.0072861-.0800018-.0727158-.4659843-.1820526-.5680351-.0508499-.0508461-.2620621-.0800056-.3058014-.1018753-.2112122-.0947609-.5024338-.3276634-.5170135-.575325-.0145798-.2256126.1893463-.5826149.2185059-.8228073.0143967-.15308.0072861-.3130875.0072861-.4661636 0-.2256165.0071106-.4659882 0-.69907-.0072861-.5315895-.5899048-.5971947-.9467239-.8811226-.1310349-.1018753-.3495331-.3059769-.3932724-.4805641-.0437393-.1966362.1893463-.4078522.3349533-.5244789.2112198-.1674805.3786926-.1601906.626358-.1529007.1966324.0072899.4586945-.0654259.633461.0364456.5170135.2913971.3130875 1.1142082.3130875 1.5874825 0 .1966362-.0654297.5315895.0074692.7211151.0654221.1600113.291214.3057976.4076691.4295387.1601868.1674767.2695236.2549515.5170135.2841072.1820526.0289803.3932648.0362701.5826111.0216904.2476654-.0145798.429718-.1091614.429718-.3712234-.0072861-.2549515-.1239166-.517189-.3349533-.6555099-.2403717-.1674767-.3859787-.3130875-.5242996-.575325-.1312103-.2401962-.0801849-.5024338-.0801849-.7717857 0-.1312065-.0728912-.4661636.0583115-.5607491.1018753-.0656013.5097275-.0074654.6188889-.0074654.2184982.0074654.5315857.0291557.7282257.1530762.1383209.0872955.1820526.2547722.3057938.3276672.2986908.1966324.7356949.1018715 1.0706482.087471.4295425-.0145798.6772003.2256165.975708.5170135.1747665.1674767.3278427.3057976.4078522.5387001.1601868.444294.4442902.7792511.7865372 1.0998039.3130875.2985077.4586945.6844902.7573853.9975777.2112122 0 .2766418.0728951.487854.0656052.3641129-.0072899.4224243.0437355.5971909.356823.0800095.1528969.1893463.2912178.3130875.4076691.0510254.0728951.1018753.1530762.1456146.2257919.2403717.1312103.5534515-.2839279.6555099-.4514046.1310272-.1966362.1528931-.356823.1601868-.5899048 0-.131031-.0801849-.429718-.0364456-.5315933.1601868-.3932686.9321442-.356823 1.2525253-.3422432.1601868 0 .4951401.0872955.575325-.0947609-.109345-.1964566-.1601873-.2766415-.3714071-.3495328z"/><path d="m29.0402489 65.8117447c.2549515.145607.429718.0945816.5971947-.1747665.131031-.2185059.2257938-.4370041.3786926-.6409302.3349552-.4587021.7209358-.5170135 1.2598152-.5170135.1164513 0 .2549496-.0291595.3714008.0145798.1601887.0510254.2257938.1893463.4078503.2185059.4805641.0945816.9538383.0945816 1.4272919.0218658.4005585-.0656052.6043053-.3932724.8373871-.7065353.298687-.4076729.5243034-.9028168.640934-1.3981361.0727158-.2985077.0583115-.6044846.0508461-.9029922-.0071106-.3859825.1020508-.5534592.218502-.8957024.0656052-.2185059.1747665-.4514084.1893463-.6699104.0145798-.3059769-.0727158-.6263542.0801849-.9029922.0945816-.1674767.2401924-.2912216.3203735-.4661636.1237411-.2401962.2768211-.5097237.3714027-.7573853.0291595-.0872917.0291595-.189167.0656052-.276638.0727158-.1747665.1747665-.2985077.1964569-.4951439.0220451-.1674767-.0362701-.3495331-.0216904-.517189.0216904-.2110367.1529007-.400383.1747665-.6115952.0218697-.1529007-.0218658-.3130875-.0072899-.4661636.0583153-.6407547.356823-1.3106651.5753288-1.9005699.1091614-.2912178.2256126-.4807434.4514046-.6990662.2039261-.1966362.4734535-.3932724.6117744-.6482201.1456108-.269352.1529007-.6115952.269352-.9029922.1166306-.2839317.3130875-.4659882.5242996-.6844902.1966362-.2112122.3349571-.429718.4661636-.6917801.1456108-.2912178.356823-.4807396.5899048-.7136459.2037468-.1966324.4659882-.3932686.5753288-.6553307.0800018-.1749458.0800018-.3786926.1383171-.5607491.0581398-.1895218.0800056-.3569984.1091652-.5461693.0437355-.3495331.1820564-.6190605.3422432-.9248581.1239204-.2330818.1020508-.5680389.2695274-.7573853.1966362-.2330818.5243034-.4370041.7646751-.6190605.276638-.2039261.5097198-.4515839.7572021-.6844902.1820564-.1747665.3497124-.3203773.4880333-.5315895.1674767-.2622375.356823-.4732742.5388794-.7209358.1456108-.1820564.1820564-.4734535.3786926-.6117744.2039223-.145607.5970154-.0364456.706356-.276638.0218697-.0510254 0-.1166306.0145798-.1674805.0291557-.0947609.1018715-.1895218.1383171-.2913933.1456108-.4005623.0583153-.8373909.1820564-1.2452393.0510292-.1893463.1383209-.4151382.2474861-.575325.1239166-.1674767.3715782-.2985077.444294-.5024338.0291557-.1018715.0072899-.269352.0218697-.3786926.0218658-.1383171.0656013-.2403679.1020508-.3786888.0508461-.2185059.0727158-.3714027.2110367-.5607491.0947609-.1456108.1966324-.2839279.2913933-.429718.131031-.1966324.2620621-.3786888.3495369-.5970154.1018715-.2330818.2257919-.5098991.2257919-.7719612 0-.1383209-.0510254-.2912178.0145798-.4224281.0945816-.2037468.3785133-.2985077.5315895-.4514084.1966324-.1893425.3566437-.3786888.5678596-.5534554.2403717-.1966362.4224243-.429718.5899048-.6773796-10.9888073 6.4886015-18.7007767 17.9435728-20.0480648 31.2774199z"/></g><path d="m108.2018585 85.3382721c-6.0683212 15.1337585-20.8890228 25.8242493-38.1994095 25.8242493-22.7378578 0-41.1668663-18.4288254-41.1668663-41.1666794 0-9.2293396 3.0267887-17.7430191 8.1557655-24.6016159-1.9382019 4.7712402-2.9969406 9.9748383-2.9969406 15.4318848 0 22.7230225 18.4290085 41.1667709 41.1519394 41.1667709 13.5531998 0 25.5706254-6.5455399 33.0555115-16.6546097z" fill="#344d5b" opacity=".15"/><path d="m95.8007355 59.2365379h-51.6015167c-1.2245789 0-2.2172813.9926414-2.2172813 2.2172813v19.3107529c0 1.2245102.9927025 2.2172775 2.2172813 2.2172775h51.6015167c1.2246399 0 2.2172852-.9927673 2.2172852-2.2172775v-19.3107528c-.0000001-1.2246399-.9926453-2.2172814-2.2172852-2.2172814z" fill="#344d5b"/><g fill="#ededed"><path d="m51.7007561 77.5270538v-12.8357238h1.6985893v11.3210068h6.3215485v1.5147171h-8.0201378z"/><path d="m62.0323753 77.5270538v-12.8357238h1.6985855v12.8357239h-1.6985855z"/><path d="m70.3939819 77.5270538-4.9731903-12.8357238h1.8386841l3.3358841 9.3247223c.2685013.7471466.4932327 1.4475937.6741791 2.1013489.1984634-.7004471.4290237-1.4008942.6916962-2.1013489l3.4672165-9.3247223h1.7336121l-5.0257187 12.8357239h-1.7423631z"/><path d="m78.7205658 77.5270538v-12.8357238h9.2809448v1.5147247h-7.5823593v3.9312668h7.1007996v1.5059662h-7.1007996v4.3690491h7.8800507v1.5147171h-9.5786362z"/></g></svg>