<svg height="512pt" viewBox="0 0 512 512" width="512pt" xmlns="http://www.w3.org/2000/svg"><path d="m247.082031 0c-104.765625-.015625-197.253906 68.390625-227.914062 168.566406-30.660157 100.175782 7.699219 208.628906 94.527343 267.25h.089844l71.503906 49.699219v8.828125c.027344 9.738281 7.914063 17.628906 17.652344 17.65625h150.070313c9.738281-.027344 17.628906-7.917969 17.65625-17.65625v-52.171875c.792969-.527344 1.589843-.96875 2.382812-1.5 3.882813-2.46875 7.769531-5.03125 11.476563-7.679687.011718.09375.039062.183593.085937.265624 1.09375 2.300782 2.660157 4.34375 4.59375 6.003907.617188.617187 1.324219 1.324219 2.027344 1.941406 1.304687 1.132813 2.691406 2.167969 4.148437 3.089844.710938.582031 1.480469 1.082031 2.296876 1.5.828124.464843 1.683593.878906 2.558593 1.234375.714844.347656 1.453125.644531 2.207031.882812 1.148438.441406 2.296876.796875 3.445313 1.148438 2.90625.777344 5.90625 1.164062 8.914063 1.148437 10.042968.015625 19.613281-4.257812 26.308593-11.742187 44.902344-50.246094 70.058594-115.078125 70.796875-182.464844 1.058594-79.449219-52.96875-256-264.828125-256zm0 0" fill="#f0c419"/><path d="m71.765625 399.800781c-3.265625 4.148438-6.710937 8.210938-10.242187 12.183594-13.039063 14.425781-35.289063 15.597656-49.773438 2.621094-14.484375-12.976563-15.75-35.222657-2.835938-49.761719 7.808594-8.746094 14.867188-18.136719 21.097657-28.070312zm0 0" fill="#f29c1f"/><path d="m511.910156 256c-.738281 67.386719-25.894531 132.21875-70.796875 182.464844-6.695312 7.484375-16.265625 11.757812-26.308593 11.742187-3.007813.015625-6.007813-.371093-8.914063-1.148437-1.148437-.351563-2.296875-.707032-3.445313-1.148438-.753906-.238281-1.492187-.535156-2.207031-.882812-.875-.355469-1.730469-.769532-2.558593-1.234375-.816407-.417969-1.585938-.917969-2.296876-1.5-1.457031-.921875-2.84375-1.957031-4.148437-3.089844-.703125-.617187-1.410156-1.324219-2.027344-1.941406-1.933593-1.660157-3.5-3.703125-4.59375-6.003907-.046875-.082031-.074219-.171874-.085937-.265624-3.707032 2.648437-7.59375 5.210937-11.476563 7.679687-.792969.53125-1.589843.972656-2.382812 1.5-21.660157 13.167969-45.296875 22.765625-70.003907 28.425781h-.265624l-.351563-2.734375c-8.910156-21.40625-29.78125-35.390625-52.964844-35.488281h-8.828125c-21.054687.03125-40.101562 12.496094-48.550781 31.78125-.710937 1.671875-1.328125 3.378906-1.855469 5.117188-1.707031 5.214843-2.570312 10.667968-2.558594 16.15625v.085937l-71.503906-49.699219h-.089844c-86.828124-58.621094-125.1875-167.074218-94.527343-267.25 30.660156-100.175781 123.148437-168.582031 227.914062-168.566406 211.859375 0 265.886719 176.550781 264.828125 256zm0 0" fill="#f0c419"/><path d="m384.527344 432.992188c-3.707032 2.648437-7.59375 5.210937-11.476563 7.679687-13.992187-13.128906-14.96875-35.019531-2.207031-49.34375 27.21875-30.367187 44.632812-68.246094 49.957031-108.675781 1.246094-9.636719 9.449219-16.847656 19.164063-16.855469-2.207032 46.519531-20.382813 90.851563-51.464844 125.53125-10.289062 11.527344-11.898438 28.402344-3.972656 41.664063zm0 0" fill="#f29c1f"/><path d="m189.703125 464.15625c-8.433594-19.296875-27.496094-31.761719-48.554687-31.753906h-8.824219c-29.273438.046875-52.972657 23.792968-52.96875 53.066406v8.84375c.019531 9.746094 7.910156 17.648438 17.65625 17.6875h150.070312zm0 0" fill="#2c3e50"/><path d="m370.667969 442.171875v52.171875c-.027344 9.738281-7.917969 17.628906-17.65625 17.65625h-150.070313c-9.738281-.027344-17.625-7.917969-17.652344-17.65625v-8.914062c-.011718-5.488282.851563-10.941407 2.558594-16.15625.527344-1.738282 1.144532-3.445313 1.855469-5.117188 8.449219-19.285156 27.496094-31.75 48.550781-31.78125h8.828125c23.183594.097656 44.054688 14.082031 52.964844 35.488281l.617187 2.734375c24.707032-5.660156 48.34375-15.257812 70.003907-28.425781zm0 0" fill="#35495e"/><path d="m384.613281 433.257812c1.347657 2.136719 2.882813 4.144532 4.59375 6.003907-1.933593-1.660157-3.5-3.703125-4.59375-6.003907zm0 0" fill="#f0c419"/><path d="m370.667969 442.171875v17.65625c-16.492188 10.023437-34.148438 17.992187-52.574219 23.726563-4.101562 1.242187-8.542969.464843-11.976562-2.089844-3.4375-2.554688-5.460938-6.585938-5.453126-10.867188 24.707032-5.660156 48.34375-15.257812 70.003907-28.425781zm0 0" fill="#2c3e50"/><path d="m185.292969 203.015625c-2.34375.003906-4.589844-.925781-6.246094-2.585937-10.449219-9.347657-23.878906-14.6875-37.898437-15.066407-14.03125.296875-27.488282 5.648438-37.894532 15.066407-3.460937 3.359374-8.980468 3.316406-12.390625-.09375-3.410156-3.410157-3.449219-8.925782-.09375-12.386719 13.746094-12.695313 31.675781-19.898438 50.378907-20.242188 6.734374.007813 13.425781.988281 19.875 2.914063-6.175782-5.84375-13.761719-9.980469-22.015626-12.007813-4.667968-1.238281-7.472656-5.992187-6.300781-10.675781 1.171875-4.679688 5.886719-7.554688 10.585938-6.449219 24.546875 6.828125 43.730469 26.011719 50.558593 50.558594.660157 2.636719.066407 5.429687-1.605468 7.574219-1.671875 2.144531-4.238282 3.394531-6.957032 3.394531zm0 0" fill="#f29c1f"/><path d="m238.253906 203.015625c-2.71875 0-5.285156-1.25-6.957031-3.394531-1.671875-2.144532-2.265625-4.9375-1.605469-7.574219 6.828125-24.550781 26.007813-43.734375 50.558594-50.558594 4.730469-1.183593 9.523438 1.691407 10.707031 6.421875 1.183594 4.730469-1.691406 9.523438-6.421875 10.707032-8.253906 2.027343-15.839844 6.160156-22.015625 12 6.449219-1.921876 13.140625-2.902344 19.871094-2.910157 18.707031.34375 36.636719 7.546875 50.378906 20.242188 3.453125 3.441406 3.460938 9.03125.019531 12.484375-3.441406 3.453125-9.03125 3.460937-12.484374.019531-10.449219-9.363281-23.886719-14.710937-37.914063-15.089844-14.035156.296875-27.488281 5.648438-37.894531 15.066407-1.65625 1.65625-3.902344 2.585937-6.242188 2.585937zm0 0" fill="#f29c1f"/><path d="m178.71875 62.488281c-1.167969 9.703125-5.167969 18.847657-11.507812 26.289063-6.300782 7.695312-14.394532 13.734375-23.570313 17.582031-9.054687 3.742187-18.785156 5.566406-28.578125 5.363281-4.738281-.117187-9.460938-.625-14.117188-1.511718-4.527343-1.117188-8.980468-2.523438-13.332031-4.210938-1.40625-.546875-2.269531-1.976562-2.09375-3.480469.171875-1.5 1.339844-2.695312 2.835938-2.90625l.402343-.054687c4.464844-.617188 8.753907-.730469 12.976563-1.007813 4.195313-.660156 8.367187-.78125 12.363281-1.5625 7.832032-1.238281 15.5-3.355469 22.859375-6.308593 7.136719-3.164063 13.84375-7.226563 19.949219-12.09375 6.472656-5.226563 12.394531-11.101563 17.679688-17.527344l.195312-.238282c.632812-.75 1.679688-1 2.585938-.617187.902343.382813 1.453124 1.308594 1.355468 2.285156zm0 0" fill="#e57e25"/><path d="m249.152344 61.0625c5.285156 6.425781 11.207031 12.296875 17.679687 17.527344 6.105469 4.867187 12.808594 8.929687 19.945313 12.09375 7.359375 2.953125 15.027344 5.070312 22.859375 6.308594 4 .78125 8.167969.902343 12.363281 1.5625 4.21875.277343 8.507812.386718 12.976562 1.007812l.398438.054688c1.496094.210937 2.664062 1.402343 2.839844 2.90625.175781 1.5-.6875 2.933593-2.09375 3.480468-4.351563 1.6875-8.800782 3.09375-13.332032 4.210938-4.65625.886718-9.378906 1.394531-14.117187 1.511718-9.792969.203126-19.523437-1.621093-28.578125-5.363281-9.175781-3.847656-17.265625-9.886719-23.570312-17.582031-6.335938-7.441406-10.339844-16.585938-11.507813-26.289062-.097656-.972657.449219-1.898438 1.347656-2.285157.902344-.382812 1.949219-.136719 2.582031.609375zm0 0" fill="#e57e25"/><path d="m317.703125 300.121094c-2.34375.003906-4.589844-.929688-6.242187-2.585938l-20.242188-20.242187-20.242188 20.242187c-3.445312 3.445313-9.035156 3.445313-12.480468 0l-20.242188-20.242187-20.242187 20.242187c-3.445313 3.445313-9.035157 3.445313-12.480469 0l-20.242188-20.242187-20.242187 20.242187c-3.449219 3.445313-9.035156 3.445313-12.484375 0l-20.238281-20.242187-20.242188 20.242187c-3.464843 3.359375-8.980469 3.316406-12.390625-.09375s-3.449218-8.929687-.09375-12.390625l26.484375-26.480469c3.445313-3.449218 9.035157-3.449218 12.480469 0l20.242188 20.238282 20.242187-20.238282c3.445313-3.449218 9.035156-3.449218 12.480469 0l20.242187 20.238282 20.242188-20.238282c3.449219-3.449218 9.035156-3.449218 12.484375 0l20.238281 20.238282 20.242187-20.238282c3.449219-3.449218 9.035157-3.449218 12.484376 0l26.480468 26.480469c2.523438 2.527344 3.28125 6.320313 1.914063 9.621094-1.367188 3.296875-4.582031 5.449219-8.152344 5.449219zm0 0" fill="#802d40"/></svg>