<svg id="Capa_1" enable-background="new 0 0 512 512" height="512" viewBox="0 0 512 512" width="512" xmlns="http://www.w3.org/2000/svg"><g><path d="m512 256c0 89.17-45.6 167.7-114.75 213.54-7.48 4.95-15.24 9.53-23.24 13.69-35.31 18.38-75.45 28.77-118.01 28.77s-82.7-10.39-118.01-28.77c-8-4.16-15.76-8.74-23.24-13.69-69.15-45.84-114.75-124.37-114.75-213.54 0-141.38 114.62-256 256-256s256 114.62 256 256z" fill="#78d0b1"/><g><g fill="#fbb031"><path d="m171.97 417.92-33.98 65.31c-8-4.16-15.76-8.74-23.24-13.69l42.04-80.8z"/><path d="m397.25 469.54c-7.48 4.95-15.24 9.53-23.24 13.69l-33.98-65.31 15.18-29.18z"/></g><path d="m52.67 256c0 112.29 91.04 203.33 203.33 203.33s203.33-91.04 203.33-203.33c0-25.16-4.57-49.25-12.93-71.49-20.76-55.28-64.91-99.12-120.39-119.46-21.83-8.01-45.41-12.38-70.01-12.38-112.29 0-203.33 91.04-203.33 203.33z" fill="#f4dd45"/><path d="m265.99 459.09c-3.31.16-6.63.24-9.98.24-112.29 0-203.34-91.04-203.34-203.33s91.05-203.33 203.34-203.33c3.33 0 6.65.08 9.94.24-107.64 5.22-193.32 94.16-193.32 203.09 0 108.95 85.7 197.89 193.36 203.09z" fill="#fbb031"/><circle cx="256" cy="256" fill="#fbb031" r="176.296"/><circle cx="256" cy="256" fill="#b1e4f9" r="154.057"/><path d="m410.057 256c0 85.08-68.98 154.06-154.06 154.06-3.31 0-6.59-.1-9.84-.31 80.5-5.08 144.21-71.98 144.21-153.75s-63.71-148.67-144.21-153.75c3.25-.21 6.53-.31 9.84-.31 85.08 0 154.06 68.98 154.06 154.06z" fill="#e4f6ff"/><path d="m326.01 65.05c14.63 24.12 32.08 46.31 51.89 66.12 14.64 14.64 30.57 27.99 47.63 39.87 6.78 4.72 13.74 9.22 20.87 13.47-20.76-55.28-64.91-99.12-120.39-119.46z" fill="#fbb031"/><path d="m186.266 31.961c-16.879 33.255-38.827 63.392-64.87 89.435-14.637 14.637-30.575 27.987-47.631 39.867-13.279 9.249-27.245 17.614-41.804 25.003-42.61-42.61-42.617-111.702-.007-154.312s111.702-42.603 154.312.007z" fill="#f4dd45"/><path d="m73.765 161.263c-13.279 9.249-27.245 17.614-41.804 25.003-42.61-42.61-42.617-111.702-.007-154.312 0 0-33.849 90.39 41.811 129.309z" fill="#fbb031"/><path d="m480.039 186.266c-33.255-16.879-63.392-38.827-89.435-64.87-14.637-14.637-27.987-30.575-39.867-47.631-9.249-13.279-17.614-27.245-25.003-41.804 42.61-42.61 111.702-42.617 154.312-.007s42.603 111.702-.007 154.312z" fill="#f4dd45"/><path d="m350.737 73.765c-9.249-13.279-17.614-27.245-25.003-41.804 42.61-42.61 111.702-42.617 154.312-.007 0 0-90.39-33.849-129.309 41.811z" fill="#fbb031"/><path d="m255.889 279.436c-7.233 0-13.097-5.864-13.097-13.097v-111.108c0-7.233 5.864-13.097 13.097-13.097s13.097 5.864 13.097 13.097v111.108c0 7.233-5.864 13.097-13.097 13.097z" fill="#665e66"/><path d="m319.491 269.097h-63.602c-7.233 0-13.097-5.864-13.097-13.097s5.864-13.097 13.097-13.097h63.602c7.233 0 13.097 5.864 13.097 13.097s-5.864 13.097-13.097 13.097z" fill="#665e66"/><circle cx="256" cy="256" fill="#319df5" r="28.652"/><path d="m120.781 131.903 23.84-5.222c7.379-1.616 7.379-12.139 0-13.755l-23.84-5.222c-2.685-.588-4.783-2.686-5.371-5.371l-5.222-23.84c-1.616-7.379-12.139-7.379-13.755 0l-5.222 23.84c-.588 2.685-2.686 4.783-5.371 5.371l-23.84 5.222c-7.379 1.616-7.379 12.139 0 13.755l23.84 5.222c2.685.588 4.783 2.686 5.371 5.371l5.222 23.84c1.616 7.379 12.139 7.379 13.755 0l5.222-23.84c.588-2.686 2.686-4.783 5.371-5.371z" fill="#f6e7c6"/><g fill="#319df5"><g><circle cx="256" cy="125.224" r="12.395"/><circle cx="256" cy="386.776" r="12.395"/></g><g><circle cx="190.612" cy="142.745" r="12.395"/><circle cx="321.388" cy="369.255" r="12.395"/></g><g><circle cx="142.745" cy="190.612" r="12.395"/><circle cx="369.255" cy="321.388" r="12.395"/></g><g><circle cx="125.224" cy="256" r="12.395"/><circle cx="386.776" cy="256" r="12.395"/></g><g><circle cx="142.745" cy="321.388" r="12.395"/><circle cx="369.255" cy="190.612" r="12.395"/></g><g><circle cx="190.612" cy="369.255" r="12.395"/><circle cx="321.388" cy="142.745" r="12.395"/></g></g></g></g></svg>