<?xml version="1.0" encoding="iso-8859-1"?>
<!-- Generator: Adobe Illustrator 19.0.0, SVG Export Plug-In . SVG Version: 6.00 Build 0)  -->
<svg version="1.1" id="Capa_1" xmlns="http://www.w3.org/2000/svg" xmlns:xlink="http://www.w3.org/1999/xlink" x="0px" y="0px"
	 viewBox="0 0 512 512" style="enable-background:new 0 0 512 512;" xml:space="preserve">
<circle style="fill:#FF5A5A;" cx="256" cy="255.999" r="255.999"/>
<circle style="fill:#E8CA4D;" cx="256" cy="200.954" r="24.433"/>
<polygon style="fill:#279FC9;" points="397.838,0 397.838,135.711 364.663,153.307 314.33,180.004 281.165,197.59 255.994,210.944 
	230.833,197.6 197.657,180.004 147.335,153.307 114.16,135.711 114.16,0 "/>
<path style="fill:#E8CA4D;" d="M418.419,373.363c0,41.587-15.632,79.517-41.326,108.241C341.044,500.997,299.813,512,256,512
	c-43.823,0-85.055-11.003-121.114-30.406c-25.694-28.724-41.315-66.654-41.315-108.23c0-89.704,72.725-162.419,162.429-162.419
	S418.419,283.659,418.419,373.363z"/>
<circle style="fill:#FFE461;" cx="256" cy="373.362" r="124.75"/>
<path style="fill:#E8CA4D;" d="M264.766,294.568l17.335,35.125c1.424,2.886,4.177,4.887,7.362,5.349l38.763,5.633
	c8.021,1.165,11.223,11.022,5.42,16.68l-28.049,27.341c-2.305,2.247-3.356,5.484-2.812,8.655l6.621,38.607
	c1.37,7.988-7.014,14.08-14.189,10.308l-34.671-18.227c-2.848-1.497-6.252-1.497-9.101,0l-34.671,18.227
	c-7.174,3.771-15.559-2.32-14.189-10.308l6.622-38.607c0.544-3.172-0.508-6.408-2.812-8.655l-28.049-27.341
	c-5.803-5.657-2.601-15.514,5.42-16.68l38.762-5.633c3.185-0.463,5.938-2.463,7.362-5.349l17.335-35.125
	C250.815,287.299,261.18,287.299,264.766,294.568z"/>
<g>
	<polygon style="fill:#34ABE0;" points="147.335,0 147.335,153.307 114.16,135.711 114.16,0 	"/>
	<polygon style="fill:#34ABE0;" points="230.833,0 230.833,197.6 197.657,180.004 197.657,0 	"/>
	<polygon style="fill:#34ABE0;" points="314.33,0 314.33,180.004 281.165,197.59 281.165,0 	"/>
	<polygon style="fill:#34ABE0;" points="397.838,0 397.838,135.711 364.663,153.307 364.663,0 	"/>
</g>
<circle style="fill:#FCEBA7;" cx="314.514" cy="308.526" r="20.898"/>
<g>
</g>
<g>
</g>
<g>
</g>
<g>
</g>
<g>
</g>
<g>
</g>
<g>
</g>
<g>
</g>
<g>
</g>
<g>
</g>
<g>
</g>
<g>
</g>
<g>
</g>
<g>
</g>
<g>
</g>
</svg>
